<svg width="94" height="94" viewBox="0 0 94 94" fill="none" xmlns="http://www.w3.org/2000/svg">
<path d="M0.625 47C0.625 72.612 21.388 93.375 47 93.375C72.612 93.375 93.375 72.612 93.375 47C93.375 21.388 72.612 0.625 47 0.625C21.388 0.625 0.625 21.388 0.625 47Z" fill="url(#paint0_linear_2510_154319)" stroke="#6200AE" stroke-width="0.75"/>
<circle cx="47" cy="47" r="44" fill="white" fill-opacity="0.06"/>
<g clip-path="url(#clip0_2510_154319)">
<path d="M10.8337 26.5465L10 26.0738L10.9434 24.4028L11.7771 24.8755L12.2487 24.04L13.0824 24.5127L13.5541 23.6772L19.4008 27.0082L18.4575 28.6792L15.9564 27.2501L15.013 28.9211L17.5141 30.3502L16.5707 32.0212L10.724 28.6902L11.1957 27.8547L10.362 27.382L10.8337 26.5465ZM12.6217 25.3482L11.6783 27.0192L14.1794 28.4483L15.1227 26.7774L12.6217 25.3482Z" fill="#D126FE"/>
<path d="M18.4684 17.7629L19.1815 18.4115L19.8287 17.6969L20.5417 18.3455L19.2582 19.7746L18.5452 19.126L17.2618 20.5552L20.8269 23.7762L22.1103 22.3471L21.3973 21.6985L22.6807 20.2693L23.3937 20.9179L22.7465 21.6325L23.4596 22.2811L20.8817 25.1394L20.1687 24.4908L19.5215 25.2053L15.9564 21.9843L16.6036 21.2697L15.8906 20.6211L18.4684 17.7629Z" fill="#D126FE"/>
<path d="M25.1598 12.3431L25.7192 13.1237L26.498 12.563L29.8437 17.2572L28.2861 18.3785L24.9404 13.6843L23.3827 14.8057L26.7284 19.4998L25.1707 20.6211L20.1467 13.5744L21.7044 12.4531L22.8233 14.0141L25.1707 12.3322L25.1598 12.3431Z" fill="#D126FE"/>
<path d="M35.9977 13.4205L36.3706 14.3109L31.0724 16.5756L30.6994 15.6851L32.4655 14.9266L30.5787 10.5073L28.8127 11.2658L28.4397 10.3753L31.9719 8.86925L34.2316 14.179L35.9977 13.4205ZM29.8328 8.73733L29.0759 6.9674L30.842 6.20886L31.5989 7.97879L29.8328 8.73733Z" fill="#D126FE"/>
<path d="M37.5991 8.04475L37.4236 7.09932L41.1971 6.39575L41.3726 7.34118L42.316 7.16528L42.8425 10.0016L39.069 10.7051L39.42 12.596L42.2502 12.0683L42.4257 13.0137L38.6522 13.7173L38.4767 12.7719L37.5333 12.9478L36.6448 8.22064L37.5881 8.04475H37.5991ZM40.4292 7.51707L38.5425 7.86886L38.8935 9.75971L40.7803 9.40792L40.4292 7.51707Z" fill="#D126FE"/>
<path d="M44.8501 10.8041L45.0146 6L46.9343 6.06596L46.7807 10.87L48.7004 10.936L48.8649 6.13192L50.7846 6.19788L50.631 11.002L49.6767 10.969L49.6438 11.9254L48.6894 11.8924L48.6565 12.8488L46.7368 12.7829L46.7698 11.8265L45.8154 11.7935L45.8483 10.8371L44.883 10.8041H44.8501Z" fill="#D126FE"/>
<path d="M54.3056 7.75896L54.5469 6.82452L58.2656 7.76995L58.0352 8.70438L58.9676 8.94624L58.2546 11.7385L54.536 10.7931L54.0643 12.662L56.8505 13.3765L56.6092 14.311L52.8905 13.3656L53.1319 12.4311L52.1995 12.1893L53.3842 7.5281L54.3166 7.76995L54.3056 7.75896ZM57.0918 8.47352L55.227 8.00081L54.7553 9.86968L56.6202 10.3424L57.0918 8.47352Z" fill="#D126FE"/>
<path d="M58.8689 15.0365L61.8965 9.02319L67.0411 11.6286L66.6133 12.4861L67.469 12.9148L64.8692 18.0707L63.158 17.2022L65.7577 12.0464L64.9021 11.6176L62.7411 15.916L61.8855 15.4763L64.0465 11.1779L63.1909 10.7491L60.5911 15.905L58.8799 15.0365H58.8689Z" fill="#D126FE"/>
<path d="M69.5643 14.5418L70.1676 13.7943L73.1403 16.2238L72.537 16.9713L73.2829 17.576L71.462 19.8076L68.4892 17.3781L67.2716 18.8622L69.4984 20.6871L68.8951 21.4346L65.9224 19.0051L66.5257 18.2575L65.7798 17.6529L68.8183 13.9262L69.5643 14.5308V14.5418ZM71.7911 16.3667L70.2992 15.1464L69.0816 16.6415L70.5734 17.8618L71.7911 16.3667Z" fill="#D126FE"/>
<path d="M78.7236 24.0181L74.2042 27.6019L73.0085 26.0958L77.528 22.512L76.3323 21.0059L71.8129 24.5897L70.6172 23.0837L75.8825 18.9062L78.8553 22.6769L78.0984 23.2705L78.6907 24.0291L78.7236 24.0181Z" fill="#D126FE"/>
<path d="M84.0001 27.6239L82.2779 28.4594L83.5394 31.0538L82.6728 31.4715L81.4113 28.8771L77.0893 30.9768L78.3508 33.5713L77.4842 33.989L75.8059 30.5261L76.6725 30.1084L76.2557 29.2399L80.5776 27.1402L80.1608 26.2717L81.0274 25.8539L81.4442 26.7224L83.1664 25.8869L84.0001 27.6129V27.6239Z" fill="#D126FE"/>
</g>
<circle cx="47" cy="47" r="32" fill="white" fill-opacity="0.1" stroke="#8C0EE4" stroke-width="0.5" stroke-linecap="round" stroke-dasharray="1 1"/>
<circle cx="47" cy="47" r="30" fill="#B83EFF"/>
<path d="M61.3477 43.6179C61.335 42.9648 61.2772 41.6067 61.179 40.9844C61.179 40.9844 61.2044 41.1666 61.179 40.9844C61.179 40.969 61.179 40.9536 61.1709 40.9383C60.7542 38.3263 59.6159 35.8911 57.8904 33.9204L57.8753 33.9027C57.8372 33.8601 57.8002 33.8163 57.7598 33.7749C56.5207 32.3646 55.0062 31.2364 53.3142 30.4634C51.6222 29.6904 49.7906 29.2898 47.9378 29.2876C41.5823 29.2876 36.2669 33.8861 34.8537 40.0699H34.6387C31.8824 40.1252 29.258 41.2893 27.3335 43.3103C26.8645 43.7987 26.4416 44.3315 26.0705 44.9015C25.0565 46.4533 24.4559 48.2494 24.3282 50.1119C24.2005 51.9745 24.5501 53.8388 25.3425 55.5205C25.5645 55.9896 25.819 56.4419 26.104 56.8739C27.0491 58.2764 28.3041 59.4308 29.767 60.2432C31.3124 61.1419 33.0569 61.62 34.834 61.6321H59.7438H59.8975C59.953 61.6321 60.0131 61.6321 60.0616 61.625H60.1402C60.1991 61.625 60.2557 61.6179 60.3147 61.6144H60.3909L60.5562 61.599C65.1194 61.1388 68.6807 57.2643 68.6807 52.5534C68.6807 48.1501 65.5689 44.4779 61.4355 43.6403C60.8496 43.5396 60.2586 43.4729 59.6653 43.4404C58.469 43.4422 57.2854 43.6904 56.1848 44.1703C55.0842 44.6501 54.0892 45.3518 53.259 46.2336" fill="url(#paint1_linear_2510_154319)"/>
<path d="M59.6726 62H34.8483C33.0166 61.9896 31.2184 61.4971 29.6264 60.5697C28.3103 59.8395 27.1577 58.8359 26.2425 57.6231C25.3272 56.4103 24.6696 55.0151 24.3117 53.527C23.9538 52.0388 23.9035 50.4906 24.164 48.9814C24.4246 47.4722 24.9902 46.0353 25.8247 44.763C26.2078 44.1767 26.6434 43.6281 27.1258 43.1245C29.0989 41.0466 31.7918 39.8477 34.6218 39.7871C35.3631 36.7872 37.0234 34.1093 39.3595 32.1458C41.7786 30.1034 44.8188 28.9907 47.9543 29.0001C49.8498 29.0083 51.7229 29.4211 53.4538 30.212C55.1848 31.003 56.7357 32.1548 58.0074 33.5938L58.1068 33.7121L58.1392 33.7488C59.9035 35.765 61.0664 38.2567 61.4902 40.9287L61.4983 40.9749V41.0009C61.5838 41.5735 61.6393 42.669 61.6601 43.3907C65.9205 44.3371 69 48.1737 69 52.5888C68.9999 54.9407 68.1295 57.2052 66.5641 58.9264C65.002 60.6518 62.876 61.7307 60.5889 61.9586L60.4329 61.9728L60.3404 61.9799L60.159 61.9917H60.0781L59.9071 61.9988H59.7638L59.6726 62ZM47.952 29.6507C44.9631 29.6419 42.0651 30.7028 39.7593 32.6498C37.4656 34.5776 35.8552 37.2245 35.1764 40.1822L35.121 40.4295L34.6587 40.4366C31.9852 40.4874 29.4394 41.6171 27.5753 43.5799C27.1214 44.0526 26.7113 44.5675 26.3505 45.1179C25.3677 46.6221 24.7857 48.3629 24.6618 50.1681C24.538 51.9733 24.8767 53.7804 25.6444 55.4104C26.5621 57.3659 28.0657 58.9703 29.9361 59.99C31.4338 60.8634 33.1258 61.3278 34.8494 61.3387H59.7627H59.8956H60.055H60.1313L60.2988 61.328L60.3878 61.3197C60.4352 61.3197 60.4837 61.3126 60.5323 61.3067C65.0007 60.856 68.3702 57.1069 68.3702 52.5853C68.3702 48.4257 65.4317 44.8115 61.3816 43.9917C60.8158 43.8946 60.2453 43.8298 59.6726 43.7976C58.5192 43.8005 57.3781 44.0404 56.317 44.5031C55.2559 44.9659 54.2963 45.642 53.4951 46.4914L53.0329 46.0395C53.8934 45.1272 54.9241 44.4011 56.0638 43.9042C57.2036 43.4074 58.4292 43.1499 59.6679 43.147C60.1214 43.1655 60.5735 43.2097 61.0222 43.2795C60.9991 42.5767 60.9482 41.6468 60.8778 41.144V41.1334V41.1145V41.0778L60.8685 41.0151C60.4603 38.4702 59.3497 36.098 57.6677 34.1783L57.6377 34.144L57.5429 34.0363C55.0262 31.2065 51.6231 29.6507 47.952 29.6507Z" fill="#8C0EE4"/>
<path d="M46.2626 38.3686C46.2626 39.489 45.7934 40.3964 45.2145 40.3964C44.6356 40.3964 44.1653 39.489 44.1653 38.3686C44.1653 37.2483 44.6356 36.3409 45.2145 36.3409C45.7934 36.3409 46.2626 37.2495 46.2626 38.3686Z" fill="#8C0EE4"/>
<path d="M48.2339 40.3964C48.8127 40.3964 49.2819 39.4885 49.2819 38.3686C49.2819 37.2487 48.8127 36.3409 48.2339 36.3409C47.655 36.3409 47.1858 37.2487 47.1858 38.3686C47.1858 39.4885 47.655 40.3964 48.2339 40.3964Z" fill="#8C0EE4"/>
<path d="M46.7006 43.044C46.784 43.0511 46.8677 43.0535 46.9513 43.0511C47.751 43.0334 48.4732 42.6525 49.0405 41.9485L49.2335 41.7119L48.7713 41.3168L48.5783 41.5534C48.1277 42.1142 47.5626 42.417 46.9433 42.43C46.2823 42.4466 45.6132 42.1248 45.1094 41.5522L44.9072 41.3156L44.4565 41.732L44.6588 41.9686C45.1784 42.5833 45.91 42.9686 46.7006 43.044Z" fill="#8C0EE4"/>
<circle cx="47" cy="47" r="29.75" stroke="#8C0EE4" stroke-width="0.5"/>
<path d="M3 47.4583C3.24659 71.5474 22.8508 91 46.9991 91C71.2995 91 91 71.3008 91 47C91 22.6992 71.2995 3 46.9991 3C23.0039 3 3.49501 22.206 3.00733 46.0833" stroke="#DA77FF" stroke-width="0.5" stroke-linecap="round" stroke-dasharray="1 0"/>
<path fill-rule="evenodd" clip-rule="evenodd" d="M87.2007 50.8614C87.1722 50.7154 87.1398 50.5534 87.1093 50.3914C87.0008 49.8454 86.8865 49.2994 86.7856 48.7514C86.7475 48.5474 86.8103 48.3654 86.9589 48.2254C87.4388 47.7634 87.9226 47.3054 88.4044 46.8435C88.4539 46.7975 88.5206 46.7495 88.4939 46.6675C88.4653 46.5835 88.3815 46.5875 88.313 46.5795C87.8921 46.5295 87.4731 46.4835 87.0522 46.4355C86.8236 46.4075 86.5932 46.3835 86.3647 46.3535C86.1647 46.3235 86.018 46.2075 85.9342 46.0155C85.6676 45.3995 85.4048 44.7795 85.1381 44.1615C85.121 44.1195 85.1 44.0775 85.0753 44.0435C85.0296 43.9855 84.9705 43.9855 84.9267 44.0435C84.902 44.0735 84.8829 44.1115 84.8677 44.1495C84.6049 44.7595 84.342 45.3695 84.0811 45.9815C83.9783 46.2235 83.8031 46.3395 83.5555 46.3655C83.1308 46.4095 82.7061 46.4635 82.2813 46.5115C82.0814 46.5355 81.8814 46.5575 81.6814 46.5795C81.6129 46.5875 81.5329 46.5855 81.5062 46.6655C81.4795 46.7475 81.5443 46.7955 81.5957 46.8435C82.0757 47.3034 82.5556 47.7594 83.0355 48.2194C83.1936 48.3694 83.2527 48.5594 83.2089 48.7794C83.0755 49.4594 82.9422 50.1374 82.8089 50.8174C82.8032 50.8474 82.7994 50.8774 82.8013 50.9074C82.8108 50.9814 82.8603 51.0154 82.927 50.9934C82.9651 50.9814 83.0032 50.9614 83.0374 50.9394C83.5955 50.6074 84.1516 50.2734 84.7077 49.9394C84.902 49.8214 85.0962 49.8214 85.2905 49.9374C85.8447 50.2714 86.3989 50.6034 86.9532 50.9354C86.9874 50.9554 87.0217 50.9774 87.0579 50.9894C87.1455 51.0214 87.2007 50.9754 87.2007 50.8614Z" fill="#D126FE"/>
<path fill-rule="evenodd" clip-rule="evenodd" d="M11.2007 50.8614C11.1722 50.7154 11.1398 50.5534 11.1093 50.3914C11.0008 49.8454 10.8865 49.2994 10.7856 48.7514C10.7475 48.5474 10.8103 48.3654 10.9589 48.2254C11.4388 47.7634 11.9226 47.3054 12.4044 46.8435C12.4539 46.7975 12.5206 46.7495 12.4939 46.6675C12.4653 46.5835 12.3815 46.5875 12.313 46.5795C11.8921 46.5295 11.4731 46.4835 11.0522 46.4355C10.8236 46.4075 10.5932 46.3835 10.3647 46.3535C10.1647 46.3235 10.018 46.2075 9.93423 46.0155C9.6676 45.3995 9.40477 44.7795 9.13814 44.1615C9.121 44.1195 9.10005 44.0775 9.07529 44.0435C9.02958 43.9855 8.97054 43.9855 8.92674 44.0435C8.90198 44.0735 8.88293 44.1115 8.8677 44.1495C8.60487 44.7595 8.34205 45.3695 8.08113 45.9815C7.97828 46.2235 7.80307 46.3395 7.55548 46.3655C7.13077 46.4095 6.70606 46.4635 6.28135 46.5115C6.08137 46.5355 5.8814 46.5575 5.68142 46.5795C5.61286 46.5875 5.53287 46.5855 5.50621 46.6655C5.47954 46.7475 5.5443 46.7955 5.59572 46.8435C6.07566 47.3034 6.5556 47.7594 7.03554 48.2194C7.19362 48.3694 7.25266 48.5594 7.20885 48.7794C7.07554 49.4594 6.94222 50.1374 6.8089 50.8174C6.80319 50.8474 6.79938 50.8774 6.80128 50.9074C6.81081 50.9814 6.86033 51.0154 6.92698 50.9934C6.96507 50.9814 7.00316 50.9614 7.03745 50.9394C7.59547 50.6074 8.15159 50.2734 8.70772 49.9394C8.90198 49.8214 9.09624 49.8214 9.2905 49.9374C9.84472 50.2714 10.3989 50.6034 10.9532 50.9354C10.9874 50.9554 11.0217 50.9774 11.0579 50.9894C11.1455 51.0214 11.2007 50.9754 11.2007 50.8614Z" fill="#D126FE"/>
<path opacity="0.2" fill-rule="evenodd" clip-rule="evenodd" d="M86.6743 23.8372C73.9719 1.8359 45.8384 -5.70244 23.8371 7C1.83587 19.7024 -5.70246 47.8359 6.99998 69.8372L86.6743 23.8372Z" fill="url(#paint2_linear_2510_154319)"/>
<defs>
<linearGradient id="paint0_linear_2510_154319" x1="47" y1="1" x2="47" y2="93" gradientUnits="userSpaceOnUse">
<stop stop-color="#F15EFE"/>
<stop offset="1" stop-color="#972FFF"/>
</linearGradient>
<linearGradient id="paint1_linear_2510_154319" x1="60.2754" y1="65.1216" x2="39.5616" y2="32.9016" gradientUnits="userSpaceOnUse">
<stop stop-color="#D352FE"/>
<stop offset="1" stop-color="#F054FE"/>
</linearGradient>
<linearGradient id="paint2_linear_2510_154319" x1="78" y1="12.5" x2="6.99998" y2="69.8372" gradientUnits="userSpaceOnUse">
<stop stop-color="white" stop-opacity="0.8"/>
<stop offset="1" stop-color="white" stop-opacity="0"/>
</linearGradient>
<clipPath id="clip0_2510_154319">
<rect width="74" height="28" fill="white" transform="translate(10 6)"/>
</clipPath>
</defs>
</svg>
